<?xml version="1.0" standalone="no"?>
<!DOCTYPE svg PUBLIC "-//W3C//DTD SVG 20010904//EN"
 "http://www.w3.org/TR/2001/REC-SVG-20010904/DTD/svg10.dtd">
<svg version="1.0" xmlns="http://www.w3.org/2000/svg"
 width="398.000000pt" height="398.000000pt" viewBox="0 0 398.000000 398.000000"
 preserveAspectRatio="xMidYMid meet">
<metadata>
Created by potrace 1.14, written by Peter Selinger 2001-2017
</metadata>
<g transform="translate(0.000000,398.000000) scale(0.100000,-0.100000)"
fill="#000000" stroke="none">
<path d="M1880 2986 c-3 -2 -30 -7 -61 -10 -31 -4 -92 -16 -135 -27 -218 -57
-368 -163 -444 -312 -23 -45 -41 -66 -88 -97 -94 -63 -133 -133 -131 -235 1
-27 -3 -68 -9 -90 -15 -54 -18 -127 -9 -205 19 -161 18 -190 -8 -225 -44 -57
-51 -157 -20 -290 20 -89 36 -124 90 -200 57 -80 83 -101 135 -109 22 -3 42
-12 44 -19 61 -218 125 -341 228 -438 21 -20 38 -40 38 -43 0 -16 -38 -46 -80
-62 -25 -9 -52 -22 -60 -29 -8 -7 -42 -18 -75 -24 -33 -7 -69 -14 -80 -16 -11
-3 -45 -10 -75 -16 -117 -23 -146 -31 -169 -43 -24 -13 -22 -15 63 -65 239
-141 454 -214 726 -246 158 -19 242 -19 405 0 150 18 317 59 448 111 88 35
277 129 287 144 3 4 20 15 38 24 58 30 34 40 -193 85 -107 21 -168 39 -209 60
-32 17 -64 31 -70 31 -7 0 -22 10 -34 23 l-21 23 64 69 c86 92 143 202 190
366 15 55 17 57 57 63 58 9 71 19 124 87 86 112 125 226 125 365 0 79 -26 159
-56 170 -16 7 -16 10 1 169 3 28 8 54 11 59 3 4 7 67 9 138 4 141 -7 191 -62
301 -14 27 -21 46 -15 42 39 -23 -30 84 -93 147 -101 100 -221 174 -362 223
-62 21 -65 24 -34 25 108 2 33 40 -126 64 -85 13 -355 22 -364 12z"/>
</g>
</svg>
